<svg id="Layer_1" data-name="Layer 1" xmlns="http://www.w3.org/2000/svg" viewBox="0 0 74.43 31.77"><defs><style>.cls-1,.cls-4{fill:#fff;}.cls-2{fill:#fd7e14;}.cls-3{fill:none;stroke:#fd7e14;stroke-linecap:round;stroke-linejoin:round;stroke-width:2px;}.cls-4{font-size:10.11px;font-family:ArialRoundedMTBold, Arial Rounded MT Bold;}.cls-5{letter-spacing:-0.05em;}</style></defs><title>Artboard 2 copy</title><path class="cls-1" d="M15.53,7.36V29.21a2.14,2.14,0,0,1-2.13,2.13H2.53A2.14,2.14,0,0,1,.4,29.21V7.36A2.13,2.13,0,0,1,1,5.88a2.18,2.18,0,0,1,.32-.36L6.55.83a2.1,2.1,0,0,1,2.81,0l5.23,4.69a2.15,2.15,0,0,1,.28.3,2.13,2.13,0,0,1,.66,1.54"/><path class="cls-2" d="M9.85,6.44A1.94,1.94,0,1,1,7.92,4.5,1.94,1.94,0,0,1,9.85,6.44"/><path class="cls-3" d="M13.18,21.42a5.16,5.16,0,1,1-2.76-4.57"/><line class="cls-3" x1="2.88" y1="21.81" x2="2.88" y2="14.79"/><line class="cls-3" x1="5.31" y1="17.02" x2="5.31" y2="12.57"/><line class="cls-3" x1="7.78" y1="15.72" x2="7.78" y2="11.26"/><polyline class="cls-3" points="6.73 21.36 8.12 22.54 13.02 18.23"/><text class="cls-4" transform="translate(18.84 25.39) scale(1.09 1)">OK</text><text class="cls-4" transform="translate(35.71 25.39) scale(1.09 1)">SMA<tspan class="cls-5" x="22.45" y="0">R</tspan><tspan x="29.22" y="0">T</tspan></text></svg>